<?xml version="1.0" encoding="UTF-8" standalone="no"?>
<!DOCTYPE svg PUBLIC "-//W3C//DTD SVG 1.1//EN"
 "http://www.w3.org/Graphics/SVG/1.1/DTD/svg11.dtd">
<!-- Generated by graphviz version 2.40.1 (20161225.0304)
 -->
<!-- Title: dependencies Pages: 1 -->
<svg width="822pt" height="211pt"
 viewBox="0.00 0.00 822.00 211.00" xmlns="http://www.w3.org/2000/svg" xmlns:xlink="http://www.w3.org/1999/xlink">
<g id="graph0" class="graph" transform="scale(1 1) rotate(0) translate(4 207)">
<title>dependencies</title>
<polygon fill="#ffffff" stroke="transparent" points="-4,4 -4,-207 818,-207 818,4 -4,4"/>
<text text-anchor="start" x="386.0091" y="-42.4" font-family="sans-serif" font-weight="bold" font-size="14.00" fill="#000000">Legend</text>
<polygon fill="#ffffb3" stroke="transparent" points="173,-10 173,-30 193,-30 193,-10 173,-10"/>
<text text-anchor="start" x="196.629" y="-15.4" font-family="sans-serif" font-size="14.00" fill="#000000"> &#160;Declarations</text>
<polygon fill="#8dd3c7" stroke="transparent" points="286,-10 286,-30 306,-30 306,-10 286,-10"/>
<text text-anchor="start" x="309.7251" y="-15.4" font-family="sans-serif" font-size="14.00" fill="#000000"> &#160;Module</text>
<polygon fill="#80b1d3" stroke="transparent" points="372,-10 372,-30 392,-30 392,-10 372,-10"/>
<text text-anchor="start" x="395.7812" y="-15.4" font-family="sans-serif" font-size="14.00" fill="#000000"> &#160;Bootstrap</text>
<polygon fill="#fdb462" stroke="transparent" points="469,-10 469,-30 489,-30 489,-10 469,-10"/>
<text text-anchor="start" x="492.6732" y="-15.4" font-family="sans-serif" font-size="14.00" fill="#000000"> &#160;Providers</text>
<polygon fill="#fb8072" stroke="transparent" points="565,-10 565,-30 585,-30 585,-10 565,-10"/>
<text text-anchor="start" x="588.7258" y="-15.4" font-family="sans-serif" font-size="14.00" fill="#000000"> &#160;Exports</text>
<g id="clust1" class="cluster">
<title>cluster_PagesModule</title>
<polygon fill="none" stroke="#000000" stroke-dasharray="1,5" points="8,-70 8,-195 806,-195 806,-70 8,-70"/>
</g>
<g id="clust2" class="cluster">
<title>cluster_PagesModule_declarations</title>
<polygon fill="none" stroke="#000000" points="178,-78 178,-130 798,-130 798,-78 178,-78"/>
</g>
<g id="clust7" class="cluster">
<title>cluster_PagesModule_imports</title>
<polygon fill="none" stroke="#000000" points="16,-78 16,-130 170,-130 170,-78 16,-78"/>
</g>
<!-- AccountSettingsComponent -->
<g id="node1" class="node">
<title>AccountSettingsComponent</title>
<polygon fill="#ffffb3" stroke="#000000" points="789.8724,-122 616.1276,-122 616.1276,-86 789.8724,-86 789.8724,-122"/>
<text text-anchor="middle" x="703" y="-99.8" font-family="Times,serif" font-size="14.00" fill="#000000">AccountSettingsComponent</text>
</g>
<!-- PagesModule -->
<g id="node5" class="node">
<title>PagesModule</title>
<polygon fill="#8dd3c7" stroke="#000000" points="424.2064,-187 421.2064,-191 400.2064,-191 397.2064,-187 331.7936,-187 331.7936,-151 424.2064,-151 424.2064,-187"/>
<text text-anchor="middle" x="378" y="-164.8" font-family="Times,serif" font-size="14.00" fill="#000000">PagesModule</text>
</g>
<!-- AccountSettingsComponent&#45;&gt;PagesModule -->
<g id="edge1" class="edge">
<title>AccountSettingsComponent&#45;&gt;PagesModule</title>
<path fill="none" stroke="#000000" d="M703,-122.2843C703,-143.3211 703,-175 703,-175 703,-175 434.2194,-175 434.2194,-175"/>
<polygon fill="#000000" stroke="#000000" points="434.2195,-171.5001 424.2194,-175 434.2194,-178.5001 434.2195,-171.5001"/>
</g>
<!-- DashboardComponent -->
<g id="node2" class="node">
<title>DashboardComponent</title>
<polygon fill="#ffffb3" stroke="#000000" points="597.9734,-122 456.0266,-122 456.0266,-86 597.9734,-86 597.9734,-122"/>
<text text-anchor="middle" x="527" y="-99.8" font-family="Times,serif" font-size="14.00" fill="#000000">DashboardComponent</text>
</g>
<!-- DashboardComponent&#45;&gt;PagesModule -->
<g id="edge2" class="edge">
<title>DashboardComponent&#45;&gt;PagesModule</title>
<path fill="none" stroke="#000000" d="M527,-122.0225C527,-139.3734 527,-163 527,-163 527,-163 434.3278,-163 434.3278,-163"/>
<polygon fill="#000000" stroke="#000000" points="434.3278,-159.5001 424.3278,-163 434.3277,-166.5001 434.3278,-159.5001"/>
</g>
<!-- DoctorComponent -->
<g id="node3" class="node">
<title>DoctorComponent</title>
<polygon fill="#ffffb3" stroke="#000000" points="438.205,-122 317.795,-122 317.795,-86 438.205,-86 438.205,-122"/>
<text text-anchor="middle" x="378" y="-99.8" font-family="Times,serif" font-size="14.00" fill="#000000">DoctorComponent</text>
</g>
<!-- DoctorComponent&#45;&gt;PagesModule -->
<g id="edge3" class="edge">
<title>DoctorComponent&#45;&gt;PagesModule</title>
<path fill="none" stroke="#000000" d="M378,-122.1061C378,-122.1061 378,-140.991 378,-140.991"/>
<polygon fill="#000000" stroke="#000000" points="374.5001,-140.9909 378,-150.991 381.5001,-140.991 374.5001,-140.9909"/>
</g>
<!-- PagesComponent -->
<g id="node4" class="node">
<title>PagesComponent</title>
<polygon fill="#ffffb3" stroke="#000000" points="299.9888,-122 186.0112,-122 186.0112,-86 299.9888,-86 299.9888,-122"/>
<text text-anchor="middle" x="243" y="-99.8" font-family="Times,serif" font-size="14.00" fill="#000000">PagesComponent</text>
</g>
<!-- PagesComponent&#45;&gt;PagesModule -->
<g id="edge4" class="edge">
<title>PagesComponent&#45;&gt;PagesModule</title>
<path fill="none" stroke="#000000" d="M243,-122.0225C243,-139.3734 243,-163 243,-163 243,-163 321.5407,-163 321.5407,-163"/>
<polygon fill="#000000" stroke="#000000" points="321.5407,-166.5001 331.5407,-163 321.5406,-159.5001 321.5407,-166.5001"/>
</g>
<!-- PagesRoutingModule -->
<g id="node6" class="node">
<title>PagesRoutingModule</title>
<polygon fill="#8dd3c7" stroke="#000000" points="161.8244,-122 158.8244,-126 137.8244,-126 134.8244,-122 24.1756,-122 24.1756,-86 161.8244,-86 161.8244,-122"/>
<text text-anchor="middle" x="93" y="-99.8" font-family="Times,serif" font-size="14.00" fill="#000000">PagesRoutingModule</text>
</g>
<!-- PagesRoutingModule&#45;&gt;PagesModule -->
<g id="edge5" class="edge">
<title>PagesRoutingModule&#45;&gt;PagesModule</title>
<path fill="none" stroke="#000000" d="M93,-122.2843C93,-143.3211 93,-175 93,-175 93,-175 321.8931,-175 321.8931,-175"/>
<polygon fill="#000000" stroke="#000000" points="321.8931,-178.5001 331.8931,-175 321.893,-171.5001 321.8931,-178.5001"/>
</g>
</g>
</svg>
