<?xml version="1.0" encoding="UTF-8" standalone="no"?>
<!DOCTYPE svg PUBLIC "-//W3C//DTD SVG 1.1//EN"
 "http://www.w3.org/Graphics/SVG/1.1/DTD/svg11.dtd">
<!-- Generated by graphviz version 2.40.1 (20161225.0304)
 -->
<!-- Title: dependencies Pages: 1 -->
<svg width="1905pt" height="284pt"
 viewBox="0.00 0.00 1905.00 284.00" xmlns="http://www.w3.org/2000/svg" xmlns:xlink="http://www.w3.org/1999/xlink">
<g id="graph0" class="graph" transform="scale(1 1) rotate(0) translate(4 280)">
<title>dependencies</title>
<polygon fill="#ffffff" stroke="transparent" points="-4,4 -4,-280 1901,-280 1901,4 -4,4"/>
<text text-anchor="start" x="927.5091" y="-42.4" font-family="sans-serif" font-weight="bold" font-size="14.00" fill="#000000">Legend</text>
<polygon fill="#ffffb3" stroke="transparent" points="714.5,-10 714.5,-30 734.5,-30 734.5,-10 714.5,-10"/>
<text text-anchor="start" x="738.129" y="-15.4" font-family="sans-serif" font-size="14.00" fill="#000000"> &#160;Declarations</text>
<polygon fill="#8dd3c7" stroke="transparent" points="827.5,-10 827.5,-30 847.5,-30 847.5,-10 827.5,-10"/>
<text text-anchor="start" x="851.2251" y="-15.4" font-family="sans-serif" font-size="14.00" fill="#000000"> &#160;Module</text>
<polygon fill="#80b1d3" stroke="transparent" points="913.5,-10 913.5,-30 933.5,-30 933.5,-10 913.5,-10"/>
<text text-anchor="start" x="937.2812" y="-15.4" font-family="sans-serif" font-size="14.00" fill="#000000"> &#160;Bootstrap</text>
<polygon fill="#fdb462" stroke="transparent" points="1010.5,-10 1010.5,-30 1030.5,-30 1030.5,-10 1010.5,-10"/>
<text text-anchor="start" x="1034.1732" y="-15.4" font-family="sans-serif" font-size="14.00" fill="#000000"> &#160;Providers</text>
<polygon fill="#fb8072" stroke="transparent" points="1106.5,-10 1106.5,-30 1126.5,-30 1126.5,-10 1106.5,-10"/>
<text text-anchor="start" x="1130.2258" y="-15.4" font-family="sans-serif" font-size="14.00" fill="#000000"> &#160;Exports</text>
<g id="clust7" class="cluster">
<title>cluster_AppModule</title>
<polygon fill="none" stroke="#000000" stroke-dasharray="1,5" points="8,-70 8,-268 867,-268 867,-70 8,-70"/>
</g>
<g id="clust8" class="cluster">
<title>cluster_AppModule_declarations</title>
<polygon fill="none" stroke="#000000" points="168,-78 168,-130 859,-130 859,-78 168,-78"/>
</g>
<g id="clust13" class="cluster">
<title>cluster_AppModule_imports</title>
<polygon fill="none" stroke="#000000" points="16,-78 16,-130 160,-130 160,-78 16,-78"/>
</g>
<g id="clust15" class="cluster">
<title>cluster_AppModule_bootstrap</title>
<polygon fill="none" stroke="#000000" points="355,-208 355,-260 479,-260 479,-208 355,-208"/>
</g>
<g id="clust23" class="cluster">
<title>cluster_MaintenanceModule</title>
<polygon fill="none" stroke="#000000" stroke-dasharray="1,5" points="875,-70 875,-195 1083,-195 1083,-70 875,-70"/>
</g>
<g id="clust25" class="cluster">
<title>cluster_MaintenanceModule_imports</title>
<polygon fill="none" stroke="#000000" points="883,-78 883,-130 1075,-130 1075,-78 883,-78"/>
</g>
<g id="clust35" class="cluster">
<title>cluster_PagesModule</title>
<polygon fill="none" stroke="#000000" stroke-dasharray="1,5" points="1091,-70 1091,-195 1889,-195 1889,-70 1091,-70"/>
</g>
<g id="clust36" class="cluster">
<title>cluster_PagesModule_declarations</title>
<polygon fill="none" stroke="#000000" points="1261,-78 1261,-130 1881,-130 1881,-78 1261,-78"/>
</g>
<g id="clust41" class="cluster">
<title>cluster_PagesModule_imports</title>
<polygon fill="none" stroke="#000000" points="1099,-78 1099,-130 1253,-130 1253,-78 1099,-78"/>
</g>
<!-- AppComponent -->
<g id="node1" class="node">
<title>AppComponent</title>
<polygon fill="#ffffb3" stroke="#000000" points="850.9399,-122 745.0601,-122 745.0601,-86 850.9399,-86 850.9399,-122"/>
<text text-anchor="middle" x="798" y="-99.8" font-family="Times,serif" font-size="14.00" fill="#000000">AppComponent</text>
</g>
<!-- AppModule -->
<g id="node5" class="node">
<title>AppModule</title>
<polygon fill="#8dd3c7" stroke="#000000" points="458.6571,-187 455.6571,-191 434.6571,-191 431.6571,-187 375.3429,-187 375.3429,-151 458.6571,-151 458.6571,-187"/>
<text text-anchor="middle" x="417" y="-164.8" font-family="Times,serif" font-size="14.00" fill="#000000">AppModule</text>
</g>
<!-- AppComponent&#45;&gt;AppModule -->
<g id="edge1" class="edge">
<title>AppComponent&#45;&gt;AppModule</title>
<path fill="none" stroke="#000000" d="M798,-122.2843C798,-143.3211 798,-175 798,-175 798,-175 468.8635,-175 468.8635,-175"/>
<polygon fill="#000000" stroke="#000000" points="468.8636,-171.5001 458.8635,-175 468.8635,-178.5001 468.8636,-171.5001"/>
</g>
<!-- ChangePasswordChallengeComponent -->
<g id="node2" class="node">
<title>ChangePasswordChallengeComponent</title>
<polygon fill="#ffffb3" stroke="#000000" points="727.0139,-122 492.9861,-122 492.9861,-86 727.0139,-86 727.0139,-122"/>
<text text-anchor="middle" x="610" y="-99.8" font-family="Times,serif" font-size="14.00" fill="#000000">ChangePasswordChallengeComponent</text>
</g>
<!-- ChangePasswordChallengeComponent&#45;&gt;AppModule -->
<g id="edge2" class="edge">
<title>ChangePasswordChallengeComponent&#45;&gt;AppModule</title>
<path fill="none" stroke="#000000" d="M610,-122.0225C610,-139.3734 610,-163 610,-163 610,-163 468.8781,-163 468.8781,-163"/>
<polygon fill="#000000" stroke="#000000" points="468.8782,-159.5001 458.8781,-163 468.8781,-166.5001 468.8782,-159.5001"/>
</g>
<!-- LoginComponent -->
<g id="node3" class="node">
<title>LoginComponent</title>
<polygon fill="#ffffb3" stroke="#000000" points="474.2758,-122 359.7242,-122 359.7242,-86 474.2758,-86 474.2758,-122"/>
<text text-anchor="middle" x="417" y="-99.8" font-family="Times,serif" font-size="14.00" fill="#000000">LoginComponent</text>
</g>
<!-- LoginComponent&#45;&gt;AppModule -->
<g id="edge3" class="edge">
<title>LoginComponent&#45;&gt;AppModule</title>
<path fill="none" stroke="#000000" d="M417,-122.1061C417,-122.1061 417,-140.991 417,-140.991"/>
<polygon fill="#000000" stroke="#000000" points="413.5001,-140.9909 417,-150.991 420.5001,-140.991 413.5001,-140.9909"/>
</g>
<!-- PageNotFoundComponent -->
<g id="node4" class="node">
<title>PageNotFoundComponent</title>
<polygon fill="#ffffb3" stroke="#000000" points="341.8243,-122 176.1757,-122 176.1757,-86 341.8243,-86 341.8243,-122"/>
<text text-anchor="middle" x="259" y="-99.8" font-family="Times,serif" font-size="14.00" fill="#000000">PageNotFoundComponent</text>
</g>
<!-- PageNotFoundComponent&#45;&gt;AppModule -->
<g id="edge4" class="edge">
<title>PageNotFoundComponent&#45;&gt;AppModule</title>
<path fill="none" stroke="#000000" d="M259,-122.0225C259,-139.3734 259,-163 259,-163 259,-163 365.0737,-163 365.0737,-163"/>
<polygon fill="#000000" stroke="#000000" points="365.0738,-166.5001 375.0737,-163 365.0737,-159.5001 365.0738,-166.5001"/>
</g>
<!-- AppComponent  -->
<g id="node7" class="node">
<title>AppComponent </title>
<polygon fill="#80b1d3" stroke="#000000" points="471.439,-252 362.561,-252 362.561,-216 471.439,-216 471.439,-252"/>
<text text-anchor="middle" x="417" y="-229.8" font-family="Times,serif" font-size="14.00" fill="#000000">AppComponent </text>
</g>
<!-- AppModule&#45;&gt;AppComponent  -->
<g id="edge6" class="edge">
<title>AppModule&#45;&gt;AppComponent </title>
<path fill="none" stroke="#000000" stroke-dasharray="1,5" d="M417,-187.1061C417,-187.1061 417,-205.991 417,-205.991"/>
<polygon fill="#000000" stroke="#000000" points="413.5001,-205.9909 417,-215.991 420.5001,-205.991 413.5001,-205.9909"/>
</g>
<!-- AppRoutingModule -->
<g id="node6" class="node">
<title>AppRoutingModule</title>
<polygon fill="#8dd3c7" stroke="#000000" points="152.2744,-122 149.2744,-126 128.2744,-126 125.2744,-122 23.7256,-122 23.7256,-86 152.2744,-86 152.2744,-122"/>
<text text-anchor="middle" x="88" y="-99.8" font-family="Times,serif" font-size="14.00" fill="#000000">AppRoutingModule</text>
</g>
<!-- AppRoutingModule&#45;&gt;AppModule -->
<g id="edge5" class="edge">
<title>AppRoutingModule&#45;&gt;AppModule</title>
<path fill="none" stroke="#000000" d="M88,-122.2843C88,-143.3211 88,-175 88,-175 88,-175 365.3319,-175 365.3319,-175"/>
<polygon fill="#000000" stroke="#000000" points="365.332,-178.5001 375.3319,-175 365.3319,-171.5001 365.332,-178.5001"/>
</g>
<!-- MaintenanceRoutingModule -->
<g id="node8" class="node">
<title>MaintenanceRoutingModule</title>
<polygon fill="#8dd3c7" stroke="#000000" points="1067.4664,-122 1064.4664,-126 1043.4664,-126 1040.4664,-122 890.5336,-122 890.5336,-86 1067.4664,-86 1067.4664,-122"/>
<text text-anchor="middle" x="979" y="-99.8" font-family="Times,serif" font-size="14.00" fill="#000000">MaintenanceRoutingModule</text>
</g>
<!-- MaintenanceModule -->
<g id="node9" class="node">
<title>MaintenanceModule</title>
<polygon fill="#8dd3c7" stroke="#000000" points="1044.8487,-187 1041.8487,-191 1020.8487,-191 1017.8487,-187 913.1513,-187 913.1513,-151 1044.8487,-151 1044.8487,-187"/>
<text text-anchor="middle" x="979" y="-164.8" font-family="Times,serif" font-size="14.00" fill="#000000">MaintenanceModule</text>
</g>
<!-- MaintenanceRoutingModule&#45;&gt;MaintenanceModule -->
<g id="edge7" class="edge">
<title>MaintenanceRoutingModule&#45;&gt;MaintenanceModule</title>
<path fill="none" stroke="#000000" d="M979,-122.1061C979,-122.1061 979,-140.991 979,-140.991"/>
<polygon fill="#000000" stroke="#000000" points="975.5001,-140.9909 979,-150.991 982.5001,-140.991 975.5001,-140.9909"/>
</g>
<!-- AccountSettingsComponent -->
<g id="node10" class="node">
<title>AccountSettingsComponent</title>
<polygon fill="#ffffb3" stroke="#000000" points="1872.8724,-122 1699.1276,-122 1699.1276,-86 1872.8724,-86 1872.8724,-122"/>
<text text-anchor="middle" x="1786" y="-99.8" font-family="Times,serif" font-size="14.00" fill="#000000">AccountSettingsComponent</text>
</g>
<!-- PagesModule -->
<g id="node14" class="node">
<title>PagesModule</title>
<polygon fill="#8dd3c7" stroke="#000000" points="1507.2064,-187 1504.2064,-191 1483.2064,-191 1480.2064,-187 1414.7936,-187 1414.7936,-151 1507.2064,-151 1507.2064,-187"/>
<text text-anchor="middle" x="1461" y="-164.8" font-family="Times,serif" font-size="14.00" fill="#000000">PagesModule</text>
</g>
<!-- AccountSettingsComponent&#45;&gt;PagesModule -->
<g id="edge8" class="edge">
<title>AccountSettingsComponent&#45;&gt;PagesModule</title>
<path fill="none" stroke="#000000" d="M1786,-122.2843C1786,-143.3211 1786,-175 1786,-175 1786,-175 1517.2194,-175 1517.2194,-175"/>
<polygon fill="#000000" stroke="#000000" points="1517.2195,-171.5001 1507.2194,-175 1517.2194,-178.5001 1517.2195,-171.5001"/>
</g>
<!-- DashboardComponent -->
<g id="node11" class="node">
<title>DashboardComponent</title>
<polygon fill="#ffffb3" stroke="#000000" points="1680.9734,-122 1539.0266,-122 1539.0266,-86 1680.9734,-86 1680.9734,-122"/>
<text text-anchor="middle" x="1610" y="-99.8" font-family="Times,serif" font-size="14.00" fill="#000000">DashboardComponent</text>
</g>
<!-- DashboardComponent&#45;&gt;PagesModule -->
<g id="edge9" class="edge">
<title>DashboardComponent&#45;&gt;PagesModule</title>
<path fill="none" stroke="#000000" d="M1610,-122.0225C1610,-139.3734 1610,-163 1610,-163 1610,-163 1517.3278,-163 1517.3278,-163"/>
<polygon fill="#000000" stroke="#000000" points="1517.3278,-159.5001 1507.3278,-163 1517.3277,-166.5001 1517.3278,-159.5001"/>
</g>
<!-- DoctorComponent -->
<g id="node12" class="node">
<title>DoctorComponent</title>
<polygon fill="#ffffb3" stroke="#000000" points="1521.205,-122 1400.795,-122 1400.795,-86 1521.205,-86 1521.205,-122"/>
<text text-anchor="middle" x="1461" y="-99.8" font-family="Times,serif" font-size="14.00" fill="#000000">DoctorComponent</text>
</g>
<!-- DoctorComponent&#45;&gt;PagesModule -->
<g id="edge10" class="edge">
<title>DoctorComponent&#45;&gt;PagesModule</title>
<path fill="none" stroke="#000000" d="M1461,-122.1061C1461,-122.1061 1461,-140.991 1461,-140.991"/>
<polygon fill="#000000" stroke="#000000" points="1457.5001,-140.9909 1461,-150.991 1464.5001,-140.991 1457.5001,-140.9909"/>
</g>
<!-- PagesComponent -->
<g id="node13" class="node">
<title>PagesComponent</title>
<polygon fill="#ffffb3" stroke="#000000" points="1382.9888,-122 1269.0112,-122 1269.0112,-86 1382.9888,-86 1382.9888,-122"/>
<text text-anchor="middle" x="1326" y="-99.8" font-family="Times,serif" font-size="14.00" fill="#000000">PagesComponent</text>
</g>
<!-- PagesComponent&#45;&gt;PagesModule -->
<g id="edge11" class="edge">
<title>PagesComponent&#45;&gt;PagesModule</title>
<path fill="none" stroke="#000000" d="M1326,-122.0225C1326,-139.3734 1326,-163 1326,-163 1326,-163 1404.5407,-163 1404.5407,-163"/>
<polygon fill="#000000" stroke="#000000" points="1404.5407,-166.5001 1414.5407,-163 1404.5406,-159.5001 1404.5407,-166.5001"/>
</g>
<!-- PagesRoutingModule -->
<g id="node15" class="node">
<title>PagesRoutingModule</title>
<polygon fill="#8dd3c7" stroke="#000000" points="1244.8244,-122 1241.8244,-126 1220.8244,-126 1217.8244,-122 1107.1756,-122 1107.1756,-86 1244.8244,-86 1244.8244,-122"/>
<text text-anchor="middle" x="1176" y="-99.8" font-family="Times,serif" font-size="14.00" fill="#000000">PagesRoutingModule</text>
</g>
<!-- PagesRoutingModule&#45;&gt;PagesModule -->
<g id="edge12" class="edge">
<title>PagesRoutingModule&#45;&gt;PagesModule</title>
<path fill="none" stroke="#000000" d="M1176,-122.2843C1176,-143.3211 1176,-175 1176,-175 1176,-175 1404.8931,-175 1404.8931,-175"/>
<polygon fill="#000000" stroke="#000000" points="1404.8931,-178.5001 1414.8931,-175 1404.893,-171.5001 1404.8931,-178.5001"/>
</g>
</g>
</svg>
